<?xml version="1.0" encoding="UTF-8"?>
<svg xmlns="http://www.w3.org/2000/svg" width="800" height="600" viewBox="0 0 800 600">
  <rect x="515" y="535" width="280" height="60" fill="white" stroke="black" stroke-width="0.5"/>
  <text x="519" y="547" font-size="8" font-weight="bold">Murphy System Engineering</text>
  <text x="519" y="559" font-size="7">Centrifugal Pump GA</text>
  <text x="519" y="571" font-size="7">DWG: MEC-PUMP-001</text>
  <text x="519" y="583" font-size="6">By: Murphy AI  Chk: QA Lead  Rev: A</text>
  <circle cx="775" cy="565" r="18" fill="none" stroke="black" stroke-width="0.5"/>
  <text x="775" y="569" font-size="5" text-anchor="middle">PE STAMP</text>
  <rect x="50" y="300" width="400" height="30" fill="none" stroke="black" stroke-width="0.5"/>
  <circle cx="250" cy="240" r="60" fill="none" stroke="black" stroke-width="0.5"/>
  <circle cx="250" cy="240" r="35" fill="none" stroke="black" stroke-width="0.35" stroke-dasharray="4,2"/>
  <line x1="50" y1="240" x2="450" y2="240" stroke="black" stroke-width="0.25" stroke-dasharray="12,3,3,3"/>
  <rect x="320" y="190" width="120" height="100" fill="none" stroke="black" stroke-width="0.5"/>
  <rect x="310" y="228" width="20" height="24" fill="none" stroke="black" stroke-width="0.5"/>
  <line x1="240" y1="180" x2="240" y2="130" stroke="black" stroke-width="0.5"/>
  <line x1="260" y1="180" x2="260" y2="130" stroke="black" stroke-width="0.5"/>
  <line x1="50" y1="230" x2="190" y2="230" stroke="black" stroke-width="0.5"/>
  <line x1="50" y1="250" x2="190" y2="250" stroke="black" stroke-width="0.5"/>
  <circle cx="82.0" cy="240.0" r="2" fill="none" stroke="black" stroke-width="0.5"/>
  <circle cx="78.48528137423857" cy="248.48528137423858" r="2" fill="none" stroke="black" stroke-width="0.5"/>
  <circle cx="70.0" cy="252.0" r="2" fill="none" stroke="black" stroke-width="0.5"/>
  <circle cx="61.51471862576143" cy="248.48528137423858" r="2" fill="none" stroke="black" stroke-width="0.5"/>
  <circle cx="58.0" cy="240.0" r="2" fill="none" stroke="black" stroke-width="0.5"/>
  <circle cx="61.51471862576143" cy="231.51471862576142" r="2" fill="none" stroke="black" stroke-width="0.5"/>
  <circle cx="70.0" cy="228.0" r="2" fill="none" stroke="black" stroke-width="0.5"/>
  <circle cx="78.48528137423857" cy="231.51471862576142" r="2" fill="none" stroke="black" stroke-width="0.5"/>
  <clipPath id="hatch_c4e048ab_clip"><rect x="50" y="300" width="400" height="30"/></clipPath>
  <line x1="-390.00" y1="300.00" x2="-360.00" y2="330.00" stroke="black" stroke-width="0.25" clip-path="url(#hatch_c4e048ab_clip)"/>
  <line x1="-385.00" y1="300.00" x2="-355.00" y2="330.00" stroke="black" stroke-width="0.25" clip-path="url(#hatch_c4e048ab_clip)"/>
  <line x1="-380.00" y1="300.00" x2="-350.00" y2="330.00" stroke="black" stroke-width="0.25" clip-path="url(#hatch_c4e048ab_clip)"/>
  <line x1="-375.00" y1="300.00" x2="-345.00" y2="330.00" stroke="black" stroke-width="0.25" clip-path="url(#hatch_c4e048ab_clip)"/>
  <line x1="-370.00" y1="300.00" x2="-340.00" y2="330.00" stroke="black" stroke-width="0.25" clip-path="url(#hatch_c4e048ab_clip)"/>
  <line x1="-365.00" y1="300.00" x2="-335.00" y2="330.00" stroke="black" stroke-width="0.25" clip-path="url(#hatch_c4e048ab_clip)"/>
  <line x1="-360.00" y1="300.00" x2="-330.00" y2="330.00" stroke="black" stroke-width="0.25" clip-path="url(#hatch_c4e048ab_clip)"/>
  <line x1="-355.00" y1="300.00" x2="-325.00" y2="330.00" stroke="black" stroke-width="0.25" clip-path="url(#hatch_c4e048ab_clip)"/>
  <line x1="-350.00" y1="300.00" x2="-320.00" y2="330.00" stroke="black" stroke-width="0.25" clip-path="url(#hatch_c4e048ab_clip)"/>
  <line x1="-345.00" y1="300.00" x2="-315.00" y2="330.00" stroke="black" stroke-width="0.25" clip-path="url(#hatch_c4e048ab_clip)"/>
  <line x1="-340.00" y1="300.00" x2="-310.00" y2="330.00" stroke="black" stroke-width="0.25" clip-path="url(#hatch_c4e048ab_clip)"/>
  <line x1="-335.00" y1="300.00" x2="-305.00" y2="330.00" stroke="black" stroke-width="0.25" clip-path="url(#hatch_c4e048ab_clip)"/>
  <line x1="-330.00" y1="300.00" x2="-300.00" y2="330.00" stroke="black" stroke-width="0.25" clip-path="url(#hatch_c4e048ab_clip)"/>
  <line x1="-325.00" y1="300.00" x2="-295.00" y2="330.00" stroke="black" stroke-width="0.25" clip-path="url(#hatch_c4e048ab_clip)"/>
  <line x1="-320.00" y1="300.00" x2="-290.00" y2="330.00" stroke="black" stroke-width="0.25" clip-path="url(#hatch_c4e048ab_clip)"/>
  <line x1="-315.00" y1="300.00" x2="-285.00" y2="330.00" stroke="black" stroke-width="0.25" clip-path="url(#hatch_c4e048ab_clip)"/>
  <line x1="-310.00" y1="300.00" x2="-280.00" y2="330.00" stroke="black" stroke-width="0.25" clip-path="url(#hatch_c4e048ab_clip)"/>
  <line x1="-305.00" y1="300.00" x2="-275.00" y2="330.00" stroke="black" stroke-width="0.25" clip-path="url(#hatch_c4e048ab_clip)"/>
  <line x1="-300.00" y1="300.00" x2="-270.00" y2="330.00" stroke="black" stroke-width="0.25" clip-path="url(#hatch_c4e048ab_clip)"/>
  <line x1="-295.00" y1="300.00" x2="-265.00" y2="330.00" stroke="black" stroke-width="0.25" clip-path="url(#hatch_c4e048ab_clip)"/>
  <line x1="-290.00" y1="300.00" x2="-260.00" y2="330.00" stroke="black" stroke-width="0.25" clip-path="url(#hatch_c4e048ab_clip)"/>
  <line x1="-285.00" y1="300.00" x2="-255.00" y2="330.00" stroke="black" stroke-width="0.25" clip-path="url(#hatch_c4e048ab_clip)"/>
  <line x1="-280.00" y1="300.00" x2="-250.00" y2="330.00" stroke="black" stroke-width="0.25" clip-path="url(#hatch_c4e048ab_clip)"/>
  <line x1="-275.00" y1="300.00" x2="-245.00" y2="330.00" stroke="black" stroke-width="0.25" clip-path="url(#hatch_c4e048ab_clip)"/>
  <line x1="-270.00" y1="300.00" x2="-240.00" y2="330.00" stroke="black" stroke-width="0.25" clip-path="url(#hatch_c4e048ab_clip)"/>
  <line x1="-265.00" y1="300.00" x2="-235.00" y2="330.00" stroke="black" stroke-width="0.25" clip-path="url(#hatch_c4e048ab_clip)"/>
  <line x1="-260.00" y1="300.00" x2="-230.00" y2="330.00" stroke="black" stroke-width="0.25" clip-path="url(#hatch_c4e048ab_clip)"/>
  <line x1="-255.00" y1="300.00" x2="-225.00" y2="330.00" stroke="black" stroke-width="0.25" clip-path="url(#hatch_c4e048ab_clip)"/>
  <line x1="-250.00" y1="300.00" x2="-220.00" y2="330.00" stroke="black" stroke-width="0.25" clip-path="url(#hatch_c4e048ab_clip)"/>
  <line x1="-245.00" y1="300.00" x2="-215.00" y2="330.00" stroke="black" stroke-width="0.25" clip-path="url(#hatch_c4e048ab_clip)"/>
  <line x1="-240.00" y1="300.00" x2="-210.00" y2="330.00" stroke="black" stroke-width="0.25" clip-path="url(#hatch_c4e048ab_clip)"/>
  <line x1="-235.00" y1="300.00" x2="-205.00" y2="330.00" stroke="black" stroke-width="0.25" clip-path="url(#hatch_c4e048ab_clip)"/>
  <line x1="-230.00" y1="300.00" x2="-200.00" y2="330.00" stroke="black" stroke-width="0.25" clip-path="url(#hatch_c4e048ab_clip)"/>
  <line x1="-225.00" y1="300.00" x2="-195.00" y2="330.00" stroke="black" stroke-width="0.25" clip-path="url(#hatch_c4e048ab_clip)"/>
  <line x1="-220.00" y1="300.00" x2="-190.00" y2="330.00" stroke="black" stroke-width="0.25" clip-path="url(#hatch_c4e048ab_clip)"/>
  <line x1="-215.00" y1="300.00" x2="-185.00" y2="330.00" stroke="black" stroke-width="0.25" clip-path="url(#hatch_c4e048ab_clip)"/>
  <line x1="-210.00" y1="300.00" x2="-180.00" y2="330.00" stroke="black" stroke-width="0.25" clip-path="url(#hatch_c4e048ab_clip)"/>
  <line x1="-205.00" y1="300.00" x2="-175.00" y2="330.00" stroke="black" stroke-width="0.25" clip-path="url(#hatch_c4e048ab_clip)"/>
  <line x1="-200.00" y1="300.00" x2="-170.00" y2="330.00" stroke="black" stroke-width="0.25" clip-path="url(#hatch_c4e048ab_clip)"/>
  <line x1="-195.00" y1="300.00" x2="-165.00" y2="330.00" stroke="black" stroke-width="0.25" clip-path="url(#hatch_c4e048ab_clip)"/>
  <line x1="-190.00" y1="300.00" x2="-160.00" y2="330.00" stroke="black" stroke-width="0.25" clip-path="url(#hatch_c4e048ab_clip)"/>
  <line x1="-185.00" y1="300.00" x2="-155.00" y2="330.00" stroke="black" stroke-width="0.25" clip-path="url(#hatch_c4e048ab_clip)"/>
  <line x1="-180.00" y1="300.00" x2="-150.00" y2="330.00" stroke="black" stroke-width="0.25" clip-path="url(#hatch_c4e048ab_clip)"/>
  <line x1="-175.00" y1="300.00" x2="-145.00" y2="330.00" stroke="black" stroke-width="0.25" clip-path="url(#hatch_c4e048ab_clip)"/>
  <line x1="-170.00" y1="300.00" x2="-140.00" y2="330.00" stroke="black" stroke-width="0.25" clip-path="url(#hatch_c4e048ab_clip)"/>
  <line x1="-165.00" y1="300.00" x2="-135.00" y2="330.00" stroke="black" stroke-width="0.25" clip-path="url(#hatch_c4e048ab_clip)"/>
  <line x1="-160.00" y1="300.00" x2="-130.00" y2="330.00" stroke="black" stroke-width="0.25" clip-path="url(#hatch_c4e048ab_clip)"/>
  <line x1="-155.00" y1="300.00" x2="-125.00" y2="330.00" stroke="black" stroke-width="0.25" clip-path="url(#hatch_c4e048ab_clip)"/>
  <line x1="-150.00" y1="300.00" x2="-120.00" y2="330.00" stroke="black" stroke-width="0.25" clip-path="url(#hatch_c4e048ab_clip)"/>
  <line x1="-145.00" y1="300.00" x2="-115.00" y2="330.00" stroke="black" stroke-width="0.25" clip-path="url(#hatch_c4e048ab_clip)"/>
  <line x1="-140.00" y1="300.00" x2="-110.00" y2="330.00" stroke="black" stroke-width="0.25" clip-path="url(#hatch_c4e048ab_clip)"/>
  <line x1="-135.00" y1="300.00" x2="-105.00" y2="330.00" stroke="black" stroke-width="0.25" clip-path="url(#hatch_c4e048ab_clip)"/>
  <line x1="-130.00" y1="300.00" x2="-100.00" y2="330.00" stroke="black" stroke-width="0.25" clip-path="url(#hatch_c4e048ab_clip)"/>
  <line x1="-125.00" y1="300.00" x2="-95.00" y2="330.00" stroke="black" stroke-width="0.25" clip-path="url(#hatch_c4e048ab_clip)"/>
  <line x1="-120.00" y1="300.00" x2="-90.00" y2="330.00" stroke="black" stroke-width="0.25" clip-path="url(#hatch_c4e048ab_clip)"/>
  <line x1="-115.00" y1="300.00" x2="-85.00" y2="330.00" stroke="black" stroke-width="0.25" clip-path="url(#hatch_c4e048ab_clip)"/>
  <line x1="-110.00" y1="300.00" x2="-80.00" y2="330.00" stroke="black" stroke-width="0.25" clip-path="url(#hatch_c4e048ab_clip)"/>
  <line x1="-105.00" y1="300.00" x2="-75.00" y2="330.00" stroke="black" stroke-width="0.25" clip-path="url(#hatch_c4e048ab_clip)"/>
  <line x1="-100.00" y1="300.00" x2="-70.00" y2="330.00" stroke="black" stroke-width="0.25" clip-path="url(#hatch_c4e048ab_clip)"/>
  <line x1="-95.00" y1="300.00" x2="-65.00" y2="330.00" stroke="black" stroke-width="0.25" clip-path="url(#hatch_c4e048ab_clip)"/>
  <line x1="-90.00" y1="300.00" x2="-60.00" y2="330.00" stroke="black" stroke-width="0.25" clip-path="url(#hatch_c4e048ab_clip)"/>
  <line x1="-85.00" y1="300.00" x2="-55.00" y2="330.00" stroke="black" stroke-width="0.25" clip-path="url(#hatch_c4e048ab_clip)"/>
  <line x1="-80.00" y1="300.00" x2="-50.00" y2="330.00" stroke="black" stroke-width="0.25" clip-path="url(#hatch_c4e048ab_clip)"/>
  <line x1="-75.00" y1="300.00" x2="-45.00" y2="330.00" stroke="black" stroke-width="0.25" clip-path="url(#hatch_c4e048ab_clip)"/>
  <line x1="-70.00" y1="300.00" x2="-40.00" y2="330.00" stroke="black" stroke-width="0.25" clip-path="url(#hatch_c4e048ab_clip)"/>
  <line x1="-65.00" y1="300.00" x2="-35.00" y2="330.00" stroke="black" stroke-width="0.25" clip-path="url(#hatch_c4e048ab_clip)"/>
  <line x1="-60.00" y1="300.00" x2="-30.00" y2="330.00" stroke="black" stroke-width="0.25" clip-path="url(#hatch_c4e048ab_clip)"/>
  <line x1="-55.00" y1="300.00" x2="-25.00" y2="330.00" stroke="black" stroke-width="0.25" clip-path="url(#hatch_c4e048ab_clip)"/>
  <line x1="-50.00" y1="300.00" x2="-20.00" y2="330.00" stroke="black" stroke-width="0.25" clip-path="url(#hatch_c4e048ab_clip)"/>
  <line x1="-45.00" y1="300.00" x2="-15.00" y2="330.00" stroke="black" stroke-width="0.25" clip-path="url(#hatch_c4e048ab_clip)"/>
  <line x1="-40.00" y1="300.00" x2="-10.00" y2="330.00" stroke="black" stroke-width="0.25" clip-path="url(#hatch_c4e048ab_clip)"/>
  <line x1="-35.00" y1="300.00" x2="-5.00" y2="330.00" stroke="black" stroke-width="0.25" clip-path="url(#hatch_c4e048ab_clip)"/>
  <line x1="-30.00" y1="300.00" x2="0.00" y2="330.00" stroke="black" stroke-width="0.25" clip-path="url(#hatch_c4e048ab_clip)"/>
  <line x1="-25.00" y1="300.00" x2="5.00" y2="330.00" stroke="black" stroke-width="0.25" clip-path="url(#hatch_c4e048ab_clip)"/>
  <line x1="-20.00" y1="300.00" x2="10.00" y2="330.00" stroke="black" stroke-width="0.25" clip-path="url(#hatch_c4e048ab_clip)"/>
  <line x1="-15.00" y1="300.00" x2="15.00" y2="330.00" stroke="black" stroke-width="0.25" clip-path="url(#hatch_c4e048ab_clip)"/>
  <line x1="-10.00" y1="300.00" x2="20.00" y2="330.00" stroke="black" stroke-width="0.25" clip-path="url(#hatch_c4e048ab_clip)"/>
  <line x1="-5.00" y1="300.00" x2="25.00" y2="330.00" stroke="black" stroke-width="0.25" clip-path="url(#hatch_c4e048ab_clip)"/>
  <line x1="0.00" y1="300.00" x2="30.00" y2="330.00" stroke="black" stroke-width="0.25" clip-path="url(#hatch_c4e048ab_clip)"/>
  <line x1="5.00" y1="300.00" x2="35.00" y2="330.00" stroke="black" stroke-width="0.25" clip-path="url(#hatch_c4e048ab_clip)"/>
  <line x1="10.00" y1="300.00" x2="40.00" y2="330.00" stroke="black" stroke-width="0.25" clip-path="url(#hatch_c4e048ab_clip)"/>
  <line x1="15.00" y1="300.00" x2="45.00" y2="330.00" stroke="black" stroke-width="0.25" clip-path="url(#hatch_c4e048ab_clip)"/>
  <line x1="20.00" y1="300.00" x2="50.00" y2="330.00" stroke="black" stroke-width="0.25" clip-path="url(#hatch_c4e048ab_clip)"/>
  <line x1="25.00" y1="300.00" x2="55.00" y2="330.00" stroke="black" stroke-width="0.25" clip-path="url(#hatch_c4e048ab_clip)"/>
  <line x1="30.00" y1="300.00" x2="60.00" y2="330.00" stroke="black" stroke-width="0.25" clip-path="url(#hatch_c4e048ab_clip)"/>
  <line x1="35.00" y1="300.00" x2="65.00" y2="330.00" stroke="black" stroke-width="0.25" clip-path="url(#hatch_c4e048ab_clip)"/>
  <line x1="40.00" y1="300.00" x2="70.00" y2="330.00" stroke="black" stroke-width="0.25" clip-path="url(#hatch_c4e048ab_clip)"/>
  <line x1="45.00" y1="300.00" x2="75.00" y2="330.00" stroke="black" stroke-width="0.25" clip-path="url(#hatch_c4e048ab_clip)"/>
  <line x1="50.00" y1="300.00" x2="80.00" y2="330.00" stroke="black" stroke-width="0.25" clip-path="url(#hatch_c4e048ab_clip)"/>
  <line x1="55.00" y1="300.00" x2="85.00" y2="330.00" stroke="black" stroke-width="0.25" clip-path="url(#hatch_c4e048ab_clip)"/>
  <line x1="60.00" y1="300.00" x2="90.00" y2="330.00" stroke="black" stroke-width="0.25" clip-path="url(#hatch_c4e048ab_clip)"/>
  <line x1="65.00" y1="300.00" x2="95.00" y2="330.00" stroke="black" stroke-width="0.25" clip-path="url(#hatch_c4e048ab_clip)"/>
  <line x1="70.00" y1="300.00" x2="100.00" y2="330.00" stroke="black" stroke-width="0.25" clip-path="url(#hatch_c4e048ab_clip)"/>
  <line x1="75.00" y1="300.00" x2="105.00" y2="330.00" stroke="black" stroke-width="0.25" clip-path="url(#hatch_c4e048ab_clip)"/>
  <line x1="80.00" y1="300.00" x2="110.00" y2="330.00" stroke="black" stroke-width="0.25" clip-path="url(#hatch_c4e048ab_clip)"/>
  <line x1="85.00" y1="300.00" x2="115.00" y2="330.00" stroke="black" stroke-width="0.25" clip-path="url(#hatch_c4e048ab_clip)"/>
  <line x1="90.00" y1="300.00" x2="120.00" y2="330.00" stroke="black" stroke-width="0.25" clip-path="url(#hatch_c4e048ab_clip)"/>
  <line x1="95.00" y1="300.00" x2="125.00" y2="330.00" stroke="black" stroke-width="0.25" clip-path="url(#hatch_c4e048ab_clip)"/>
  <line x1="100.00" y1="300.00" x2="130.00" y2="330.00" stroke="black" stroke-width="0.25" clip-path="url(#hatch_c4e048ab_clip)"/>
  <line x1="105.00" y1="300.00" x2="135.00" y2="330.00" stroke="black" stroke-width="0.25" clip-path="url(#hatch_c4e048ab_clip)"/>
  <line x1="110.00" y1="300.00" x2="140.00" y2="330.00" stroke="black" stroke-width="0.25" clip-path="url(#hatch_c4e048ab_clip)"/>
  <line x1="115.00" y1="300.00" x2="145.00" y2="330.00" stroke="black" stroke-width="0.25" clip-path="url(#hatch_c4e048ab_clip)"/>
  <line x1="120.00" y1="300.00" x2="150.00" y2="330.00" stroke="black" stroke-width="0.25" clip-path="url(#hatch_c4e048ab_clip)"/>
  <line x1="125.00" y1="300.00" x2="155.00" y2="330.00" stroke="black" stroke-width="0.25" clip-path="url(#hatch_c4e048ab_clip)"/>
  <line x1="130.00" y1="300.00" x2="160.00" y2="330.00" stroke="black" stroke-width="0.25" clip-path="url(#hatch_c4e048ab_clip)"/>
  <line x1="135.00" y1="300.00" x2="165.00" y2="330.00" stroke="black" stroke-width="0.25" clip-path="url(#hatch_c4e048ab_clip)"/>
  <line x1="140.00" y1="300.00" x2="170.00" y2="330.00" stroke="black" stroke-width="0.25" clip-path="url(#hatch_c4e048ab_clip)"/>
  <line x1="145.00" y1="300.00" x2="175.00" y2="330.00" stroke="black" stroke-width="0.25" clip-path="url(#hatch_c4e048ab_clip)"/>
  <line x1="150.00" y1="300.00" x2="180.00" y2="330.00" stroke="black" stroke-width="0.25" clip-path="url(#hatch_c4e048ab_clip)"/>
  <line x1="155.00" y1="300.00" x2="185.00" y2="330.00" stroke="black" stroke-width="0.25" clip-path="url(#hatch_c4e048ab_clip)"/>
  <line x1="160.00" y1="300.00" x2="190.00" y2="330.00" stroke="black" stroke-width="0.25" clip-path="url(#hatch_c4e048ab_clip)"/>
  <line x1="165.00" y1="300.00" x2="195.00" y2="330.00" stroke="black" stroke-width="0.25" clip-path="url(#hatch_c4e048ab_clip)"/>
  <line x1="170.00" y1="300.00" x2="200.00" y2="330.00" stroke="black" stroke-width="0.25" clip-path="url(#hatch_c4e048ab_clip)"/>
  <line x1="175.00" y1="300.00" x2="205.00" y2="330.00" stroke="black" stroke-width="0.25" clip-path="url(#hatch_c4e048ab_clip)"/>
  <line x1="180.00" y1="300.00" x2="210.00" y2="330.00" stroke="black" stroke-width="0.25" clip-path="url(#hatch_c4e048ab_clip)"/>
  <line x1="185.00" y1="300.00" x2="215.00" y2="330.00" stroke="black" stroke-width="0.25" clip-path="url(#hatch_c4e048ab_clip)"/>
  <line x1="190.00" y1="300.00" x2="220.00" y2="330.00" stroke="black" stroke-width="0.25" clip-path="url(#hatch_c4e048ab_clip)"/>
  <line x1="195.00" y1="300.00" x2="225.00" y2="330.00" stroke="black" stroke-width="0.25" clip-path="url(#hatch_c4e048ab_clip)"/>
  <line x1="200.00" y1="300.00" x2="230.00" y2="330.00" stroke="black" stroke-width="0.25" clip-path="url(#hatch_c4e048ab_clip)"/>
  <line x1="205.00" y1="300.00" x2="235.00" y2="330.00" stroke="black" stroke-width="0.25" clip-path="url(#hatch_c4e048ab_clip)"/>
  <line x1="210.00" y1="300.00" x2="240.00" y2="330.00" stroke="black" stroke-width="0.25" clip-path="url(#hatch_c4e048ab_clip)"/>
  <line x1="215.00" y1="300.00" x2="245.00" y2="330.00" stroke="black" stroke-width="0.25" clip-path="url(#hatch_c4e048ab_clip)"/>
  <line x1="220.00" y1="300.00" x2="250.00" y2="330.00" stroke="black" stroke-width="0.25" clip-path="url(#hatch_c4e048ab_clip)"/>
  <line x1="225.00" y1="300.00" x2="255.00" y2="330.00" stroke="black" stroke-width="0.25" clip-path="url(#hatch_c4e048ab_clip)"/>
  <line x1="230.00" y1="300.00" x2="260.00" y2="330.00" stroke="black" stroke-width="0.25" clip-path="url(#hatch_c4e048ab_clip)"/>
  <line x1="235.00" y1="300.00" x2="265.00" y2="330.00" stroke="black" stroke-width="0.25" clip-path="url(#hatch_c4e048ab_clip)"/>
  <line x1="240.00" y1="300.00" x2="270.00" y2="330.00" stroke="black" stroke-width="0.25" clip-path="url(#hatch_c4e048ab_clip)"/>
  <line x1="245.00" y1="300.00" x2="275.00" y2="330.00" stroke="black" stroke-width="0.25" clip-path="url(#hatch_c4e048ab_clip)"/>
  <line x1="250.00" y1="300.00" x2="280.00" y2="330.00" stroke="black" stroke-width="0.25" clip-path="url(#hatch_c4e048ab_clip)"/>
  <line x1="255.00" y1="300.00" x2="285.00" y2="330.00" stroke="black" stroke-width="0.25" clip-path="url(#hatch_c4e048ab_clip)"/>
  <line x1="260.00" y1="300.00" x2="290.00" y2="330.00" stroke="black" stroke-width="0.25" clip-path="url(#hatch_c4e048ab_clip)"/>
  <line x1="265.00" y1="300.00" x2="295.00" y2="330.00" stroke="black" stroke-width="0.25" clip-path="url(#hatch_c4e048ab_clip)"/>
  <line x1="270.00" y1="300.00" x2="300.00" y2="330.00" stroke="black" stroke-width="0.25" clip-path="url(#hatch_c4e048ab_clip)"/>
  <line x1="275.00" y1="300.00" x2="305.00" y2="330.00" stroke="black" stroke-width="0.25" clip-path="url(#hatch_c4e048ab_clip)"/>
  <line x1="280.00" y1="300.00" x2="310.00" y2="330.00" stroke="black" stroke-width="0.25" clip-path="url(#hatch_c4e048ab_clip)"/>
  <line x1="285.00" y1="300.00" x2="315.00" y2="330.00" stroke="black" stroke-width="0.25" clip-path="url(#hatch_c4e048ab_clip)"/>
  <line x1="290.00" y1="300.00" x2="320.00" y2="330.00" stroke="black" stroke-width="0.25" clip-path="url(#hatch_c4e048ab_clip)"/>
  <line x1="295.00" y1="300.00" x2="325.00" y2="330.00" stroke="black" stroke-width="0.25" clip-path="url(#hatch_c4e048ab_clip)"/>
  <line x1="300.00" y1="300.00" x2="330.00" y2="330.00" stroke="black" stroke-width="0.25" clip-path="url(#hatch_c4e048ab_clip)"/>
  <line x1="305.00" y1="300.00" x2="335.00" y2="330.00" stroke="black" stroke-width="0.25" clip-path="url(#hatch_c4e048ab_clip)"/>
  <line x1="310.00" y1="300.00" x2="340.00" y2="330.00" stroke="black" stroke-width="0.25" clip-path="url(#hatch_c4e048ab_clip)"/>
  <line x1="315.00" y1="300.00" x2="345.00" y2="330.00" stroke="black" stroke-width="0.25" clip-path="url(#hatch_c4e048ab_clip)"/>
  <line x1="320.00" y1="300.00" x2="350.00" y2="330.00" stroke="black" stroke-width="0.25" clip-path="url(#hatch_c4e048ab_clip)"/>
  <line x1="325.00" y1="300.00" x2="355.00" y2="330.00" stroke="black" stroke-width="0.25" clip-path="url(#hatch_c4e048ab_clip)"/>
  <line x1="330.00" y1="300.00" x2="360.00" y2="330.00" stroke="black" stroke-width="0.25" clip-path="url(#hatch_c4e048ab_clip)"/>
  <line x1="335.00" y1="300.00" x2="365.00" y2="330.00" stroke="black" stroke-width="0.25" clip-path="url(#hatch_c4e048ab_clip)"/>
  <line x1="340.00" y1="300.00" x2="370.00" y2="330.00" stroke="black" stroke-width="0.25" clip-path="url(#hatch_c4e048ab_clip)"/>
  <line x1="345.00" y1="300.00" x2="375.00" y2="330.00" stroke="black" stroke-width="0.25" clip-path="url(#hatch_c4e048ab_clip)"/>
  <line x1="350.00" y1="300.00" x2="380.00" y2="330.00" stroke="black" stroke-width="0.25" clip-path="url(#hatch_c4e048ab_clip)"/>
  <line x1="355.00" y1="300.00" x2="385.00" y2="330.00" stroke="black" stroke-width="0.25" clip-path="url(#hatch_c4e048ab_clip)"/>
  <line x1="360.00" y1="300.00" x2="390.00" y2="330.00" stroke="black" stroke-width="0.25" clip-path="url(#hatch_c4e048ab_clip)"/>
  <line x1="365.00" y1="300.00" x2="395.00" y2="330.00" stroke="black" stroke-width="0.25" clip-path="url(#hatch_c4e048ab_clip)"/>
  <line x1="370.00" y1="300.00" x2="400.00" y2="330.00" stroke="black" stroke-width="0.25" clip-path="url(#hatch_c4e048ab_clip)"/>
  <line x1="375.00" y1="300.00" x2="405.00" y2="330.00" stroke="black" stroke-width="0.25" clip-path="url(#hatch_c4e048ab_clip)"/>
  <line x1="380.00" y1="300.00" x2="410.00" y2="330.00" stroke="black" stroke-width="0.25" clip-path="url(#hatch_c4e048ab_clip)"/>
  <line x1="385.00" y1="300.00" x2="415.00" y2="330.00" stroke="black" stroke-width="0.25" clip-path="url(#hatch_c4e048ab_clip)"/>
  <line x1="390.00" y1="300.00" x2="420.00" y2="330.00" stroke="black" stroke-width="0.25" clip-path="url(#hatch_c4e048ab_clip)"/>
  <line x1="395.00" y1="300.00" x2="425.00" y2="330.00" stroke="black" stroke-width="0.25" clip-path="url(#hatch_c4e048ab_clip)"/>
  <line x1="400.00" y1="300.00" x2="430.00" y2="330.00" stroke="black" stroke-width="0.25" clip-path="url(#hatch_c4e048ab_clip)"/>
  <line x1="405.00" y1="300.00" x2="435.00" y2="330.00" stroke="black" stroke-width="0.25" clip-path="url(#hatch_c4e048ab_clip)"/>
  <line x1="410.00" y1="300.00" x2="440.00" y2="330.00" stroke="black" stroke-width="0.25" clip-path="url(#hatch_c4e048ab_clip)"/>
  <line x1="415.00" y1="300.00" x2="445.00" y2="330.00" stroke="black" stroke-width="0.25" clip-path="url(#hatch_c4e048ab_clip)"/>
  <line x1="420.00" y1="300.00" x2="450.00" y2="330.00" stroke="black" stroke-width="0.25" clip-path="url(#hatch_c4e048ab_clip)"/>
  <line x1="425.00" y1="300.00" x2="455.00" y2="330.00" stroke="black" stroke-width="0.25" clip-path="url(#hatch_c4e048ab_clip)"/>
  <line x1="430.00" y1="300.00" x2="460.00" y2="330.00" stroke="black" stroke-width="0.25" clip-path="url(#hatch_c4e048ab_clip)"/>
  <line x1="435.00" y1="300.00" x2="465.00" y2="330.00" stroke="black" stroke-width="0.25" clip-path="url(#hatch_c4e048ab_clip)"/>
  <line x1="440.00" y1="300.00" x2="470.00" y2="330.00" stroke="black" stroke-width="0.25" clip-path="url(#hatch_c4e048ab_clip)"/>
  <line x1="445.00" y1="300.00" x2="475.00" y2="330.00" stroke="black" stroke-width="0.25" clip-path="url(#hatch_c4e048ab_clip)"/>
  <line x1="450.00" y1="300.00" x2="480.00" y2="330.00" stroke="black" stroke-width="0.25" clip-path="url(#hatch_c4e048ab_clip)"/>
  <line x1="455.00" y1="300.00" x2="485.00" y2="330.00" stroke="black" stroke-width="0.25" clip-path="url(#hatch_c4e048ab_clip)"/>
  <line x1="460.00" y1="300.00" x2="490.00" y2="330.00" stroke="black" stroke-width="0.25" clip-path="url(#hatch_c4e048ab_clip)"/>
  <line x1="465.00" y1="300.00" x2="495.00" y2="330.00" stroke="black" stroke-width="0.25" clip-path="url(#hatch_c4e048ab_clip)"/>
  <line x1="470.00" y1="300.00" x2="500.00" y2="330.00" stroke="black" stroke-width="0.25" clip-path="url(#hatch_c4e048ab_clip)"/>
  <line x1="475.00" y1="300.00" x2="505.00" y2="330.00" stroke="black" stroke-width="0.25" clip-path="url(#hatch_c4e048ab_clip)"/>
  <line x1="480.00" y1="300.00" x2="510.00" y2="330.00" stroke="black" stroke-width="0.25" clip-path="url(#hatch_c4e048ab_clip)"/>
  <line x1="485.00" y1="300.00" x2="515.00" y2="330.00" stroke="black" stroke-width="0.25" clip-path="url(#hatch_c4e048ab_clip)"/>
  <rect x="50" y="300" width="400" height="30" fill="none" stroke="black" stroke-width="0.5"/>
  <line x1="50" y1="330" x2="50" y2="300" stroke="black" stroke-width="0.25"/>
  <line x1="450" y1="330" x2="450" y2="300" stroke="black" stroke-width="0.25"/>
  <line x1="50" y1="300" x2="450" y2="300" stroke="black" stroke-width="0.25"/>
  <polygon points="50,300 54,298.0 54,302.0" fill="black"/>
  <polygon points="450,300 446,298.0 446,302.0" fill="black"/>
  <text x="250.0" y="298" font-size="3.5" text-anchor="middle">400</text>
  <line x1="380" y1="190" x2="430" y2="160" stroke="black" stroke-width="0.5"/>
  <line x1="430" y1="160" x2="470" y2="160" stroke="black" stroke-width="0.5"/>
  <polygon points="380,190 378.97,188.29 381.03,191.71" fill="black"/>
  <text x="472" y="160" font-size="3.5">MOTOR 15kW</text>
  <text x="210" y="245" font-size="5">PUMP</text>
  <text x="55" y="320" font-size="4">BASE PLATE - A36 STEEL</text>
  <text x="225" y="120" font-size="5">3"-150# ANSI DISCHARGE</text>
  <text x="55" y="225" font-size="5">4"-150# ANSI SUCTION</text>
</svg>