<?xml version="1.0" encoding="UTF-8"?><svg xmlns="http://www.w3.org/2000/svg" width="800" height="200" viewBox="0 0 800 200"><rect width="800" height="200" fill="white"/><text x="400" y="20" font-size="12" font-weight="bold" text-anchor="middle">Murphy Drawing Engine — Engineering Symbol Library</text><g transform="translate(60,50)"><circle cx="25.0" cy="25.0" r="25.0" fill="none" stroke="black" stroke-width="0.5"/><line x1="0.0" y1="25.0" x2="50.0" y2="25.0" stroke="black" stroke-width="0.5"/><line x1="25.0" y1="25.0" x2="25.0" y2="50.0" stroke="black" stroke-width="0.5"/><text x="25.0" y="58.0" font-size="4" text-anchor="middle">P</text><text x="0" y="68" font-size="6" text-anchor="start">Centrifugal Pump</text></g><g transform="translate(200,60)"><polygon points="0.0,0.0 30.0,0.0 15.0,15.0" fill="none" stroke="black" stroke-width="0.5"/><polygon points="0.0,30.0 30.0,30.0 15.0,15.0" fill="none" stroke="black" stroke-width="0.5"/><line x1="0.0" y1="15.0" x2="30.0" y2="15.0" stroke="black" stroke-width="0.5"/><text x="0" y="42" font-size="6" text-anchor="start">Gate Valve</text></g><g transform="translate(300,60)"><circle cx="15.0" cy="15.0" r="15.0" fill="none" stroke="black" stroke-width="0.5"/><polygon points="6.0,15.0 24.0,7.5 24.0,22.5" fill="black"/><text x="0" y="42" font-size="6" text-anchor="start">Check Valve</text></g><g transform="translate(400,65)"><circle cx="10.0" cy="10.0" r="10.0" fill="white" stroke="black" stroke-width="0.5"/><text x="10.0" y="12.0" font-size="8.0" text-anchor="middle">PI</text><text x="0" y="32" font-size="6" text-anchor="start">Pressure Indicator</text></g><g transform="translate(480,65)"><circle cx="10.0" cy="10.0" r="10.0" fill="white" stroke="black" stroke-width="0.5"/><text x="10.0" y="12.0" font-size="8.0" text-anchor="middle">FI</text><text x="0" y="32" font-size="6" text-anchor="start">Flow Indicator</text></g><g transform="translate(560,65)"><circle cx="10.0" cy="10.0" r="10.0" fill="white" stroke="black" stroke-width="0.5"/><text x="10.0" y="12.0" font-size="8.0" text-anchor="middle">TI</text><text x="0" y="32" font-size="6" text-anchor="start">Temp Indicator</text></g></svg>